# Blender v3.3.1 OBJ File: 'cucumber.blend'
# www.blender.org
mtllib cucumber.mtl
o cucumber_Cube.002
v -0.087510 0.018398 0.015410
v -0.046751 0.159185 0.045455
v -0.087510 0.018398 -0.015410
v -0.046751 0.159185 -0.045454
v -0.060226 0.004408 0.015410
v 0.034163 0.118856 0.045455
v -0.060226 0.004408 -0.015410
v 0.034163 0.118856 -0.045454
v 0.080443 0.448385 0.016301
v 0.080443 0.448385 -0.016300
v 0.111544 0.439740 -0.016300
v 0.111544 0.439740 0.016301
v -0.079264 0.090118 0.042472
v -0.079264 0.090118 -0.042471
v -0.004064 0.051560 -0.042471
v -0.004064 0.051560 0.042472
v -0.090488 0.049397 -0.032823
v -0.032371 0.019598 -0.032823
v -0.032371 0.019598 0.032824
v -0.090488 0.049397 0.032824
v 0.000813 0.266890 0.043808
v 0.000813 0.266890 -0.043807
v 0.080819 0.232615 0.043807
v 0.080819 0.232615 -0.043807
v 0.037639 0.366794 0.039807
v 0.112082 0.340384 0.039807
v 0.037639 0.366794 -0.039806
v 0.112082 0.340385 -0.039806
v 0.059161 0.422159 0.031884
v 0.119481 0.403336 0.031884
v 0.059161 0.422159 -0.031884
v 0.119481 0.403336 -0.031884
v -0.090418 0.017736 0.000000
v -0.065783 0.119430 0.044622
v -0.061923 0.166747 0.000000
v -0.090486 0.030991 -0.024047
v -0.074777 0.009716 -0.017668
v -0.006294 0.139021 -0.062500
v -0.047908 0.009159 -0.024047
v -0.059135 0.001696 0.000000
v 0.049334 0.111295 0.000000
v -0.047908 0.009159 0.024048
v -0.074777 0.009716 0.017669
v -0.006294 0.139021 0.062500
v 0.078363 0.451156 0.000000
v 0.096451 0.446208 -0.018940
v 0.114540 0.441260 0.000000
v 0.096451 0.446208 0.018940
v 0.070354 0.439580 0.024446
v -0.023260 0.210352 -0.045056
v 0.116829 0.425998 0.024446
v 0.057850 0.172361 -0.045056
v -0.087110 0.068211 0.038824
v -0.065783 0.119430 -0.044621
v 0.013277 0.079037 -0.044621
v 0.013277 0.079037 0.044622
v -0.041664 0.070839 0.058399
v 0.010036 0.044330 0.000000
v -0.041664 0.070839 -0.058398
v -0.093364 0.097348 0.000000
v -0.087110 0.068211 -0.038824
v -0.018368 0.032964 -0.038824
v -0.018368 0.032964 0.038824
v -0.090486 0.030991 0.024048
v -0.101385 0.054984 0.000000
v -0.061429 0.034497 -0.045132
v -0.021474 0.014010 0.000000
v -0.061429 0.034497 0.045133
v -0.023260 0.210352 0.045057
v 0.021546 0.321240 -0.042065
v 0.057850 0.172361 0.045057
v 0.099398 0.290993 -0.042065
v 0.095821 0.226189 0.000000
v 0.040816 0.249753 -0.060235
v 0.040816 0.249753 0.060235
v -0.014188 0.273316 0.000000
v 0.021546 0.321240 0.042065
v 0.099398 0.290993 0.042065
v 0.049175 0.399195 -0.036740
v 0.118354 0.376317 -0.036740
v 0.126040 0.335433 0.000000
v 0.074861 0.353589 -0.054733
v 0.074861 0.353589 0.054734
v 0.023681 0.371746 0.000000
v 0.049175 0.399195 0.036741
v 0.118354 0.376317 0.036741
v 0.070354 0.439580 -0.024445
v 0.116829 0.425998 -0.024445
v 0.130791 0.399807 0.000000
v 0.089321 0.412747 -0.043840
v 0.089321 0.412747 0.043840
v 0.047851 0.425688 0.000000
v -0.080607 0.127004 0.000000
v -0.026253 0.099234 -0.061354
v 0.028101 0.071464 0.000000
v -0.026253 0.099234 0.061355
v -0.076683 0.006176 0.000000
v 0.061850 0.442275 0.000000
v 0.097411 0.450711 0.000000
v 0.093637 0.433000 0.033435
v 0.093637 0.433000 -0.033435
v 0.125423 0.423726 0.000000
v -0.052739 0.050587 0.053384
v -0.005479 0.026355 0.000000
v -0.052739 0.050587 -0.053383
v -0.099999 0.074819 0.000000
v -0.098366 0.034819 0.000000
v -0.069287 0.019909 -0.032846
v -0.040208 0.004999 0.000000
v -0.069287 0.019909 0.032847
v 0.073058 0.165238 0.000000
v 0.017295 0.191357 -0.061953
v 0.017295 0.191357 0.061953
v -0.038468 0.217475 0.000000
v 0.113996 0.285321 0.000000
v 0.060472 0.306117 -0.057839
v 0.060472 0.306117 0.057839
v 0.006949 0.326912 0.000000
v 0.131324 0.372027 0.000000
v 0.083764 0.387756 -0.050518
v 0.083764 0.387756 0.050519
v 0.036204 0.403485 0.000000
vt 0.175580 0.152016
vt 0.184362 0.220975
vt 0.079776 0.228751
vt 0.076036 0.159467
vt 0.192524 0.315176
vt 0.085963 0.322736
vt 0.004720 0.321248
vt 0.000000 0.226936
vt 0.000100 0.157689
vt 0.416887 0.131239
vt 0.412114 0.200544
vt 0.307989 0.192211
vt 0.317785 0.123175
vt 0.405875 0.295219
vt 0.299762 0.287699
vt 0.220815 0.281248
vt 0.230532 0.184927
vt 0.244065 0.116110
vt 0.823390 0.119701
vt 0.823848 0.188130
vt 0.718990 0.185777
vt 0.723584 0.117413
vt 0.822854 0.284145
vt 0.716035 0.282111
vt 0.635628 0.287418
vt 0.640054 0.191343
vt 0.648451 0.122760
vt 0.448895 0.871000
vt 0.439619 0.802782
vt 0.543853 0.795988
vt 0.548103 0.864401
vt 0.432539 0.706924
vt 0.538749 0.700970
vt 0.619206 0.689983
vt 0.622806 0.784255
vt 0.623248 0.853102
vt 0.858186 0.081103
vt 0.887512 0.066612
vt 0.900110 0.103510
vt 0.864931 0.114194
vt 0.921207 0.059500
vt 0.937189 0.089426
vt 0.944840 0.120897
vt 0.914608 0.137008
vt 0.881819 0.142500
vt 0.060596 0.929584
vt 0.117430 0.926549
vt 0.124593 0.970198
vt 0.080892 0.972427
vt 0.192330 0.925324
vt 0.181893 0.969162
vt 0.170834 0.994771
vt 0.135090 1.000000
vt 0.103485 0.996949
vt 0.878441 0.674539
vt 0.881168 0.626408
vt 0.938089 0.635625
vt 0.924936 0.690743
vt 0.896236 0.583944
vt 0.945521 0.585539
vt 0.989288 0.604140
vt 0.989288 0.649874
vt 0.971494 0.694735
vt 0.619054 0.079285
vt 0.563038 0.076134
vt 0.563274 0.030741
vt 0.606147 0.034578
vt 0.488956 0.069454
vt 0.506651 0.025166
vt 0.521641 0.000664
vt 0.557605 0.000000
vt 0.587866 0.007850
vt 0.288545 0.917668
vt 0.343664 0.911315
vt 0.359354 0.955479
vt 0.316986 0.960825
vt 0.417839 0.905712
vt 0.415895 0.949783
vt 0.409973 0.975824
vt 0.375729 0.984522
vt 0.843396 0.698552
vt 0.831404 0.624806
vt 0.690031 0.924466
vt 0.746499 0.924824
vt 0.757714 0.968880
vt 0.714231 0.967791
vt 0.821359 0.922169
vt 0.814921 0.966030
vt 0.908335 0.738600
vt 0.982942 0.728839
vt 0.469786 0.955695
vt 0.458410 0.918865
vt 0.549098 0.912833
vt 0.546457 0.950596
vt 0.617789 0.902504
vt 0.604532 0.941863
vt 0.813970 0.034168
vt 0.820406 0.071513
vt 0.729171 0.069421
vt 0.736836 0.032399
vt 0.660490 0.074309
vt 0.678770 0.036532
vt 0.414547 0.041313
vt 0.417839 0.081331
vt 0.327246 0.073959
vt 0.337957 0.035081
vt 0.259858 0.067501
vt 0.280984 0.029621
vt 0.155162 0.062011
vt 0.166447 0.102202
vt 0.075452 0.109013
vt 0.078231 0.067770
vt 0.006038 0.107388
vt 0.019545 0.066396
vt 0.127330 0.002388
vt 0.140561 0.025245
vt 0.084328 0.028999
vt 0.093474 0.000000
vt 0.041205 0.028458
vt 0.836630 0.119939
vt 0.836228 0.065785
vt 0.878609 0.031480
vt 0.407350 0.004963
vt 0.351455 0.000000
vt 0.873103 0.000000
vt 0.949661 0.001514
vt 0.934574 0.032074
vt 0.970962 0.073892
vt 0.803819 0.001646
vt 0.747492 0.000000
vt 1.000000 0.058276
vt 1.000000 0.132293
vt 0.971453 0.127886
vt 0.928983 0.162351
vt 0.484350 0.987474
vt 0.540393 0.984108
vt 0.176527 0.017289
vt 0.204916 0.051679
vt 0.873108 0.161597
vt 0.715641 0.408745
vt 0.635945 0.413128
vt 0.821532 0.409883
vt 0.821050 0.548690
vt 0.718095 0.548753
vt 0.640609 0.551845
vt 0.295648 0.411186
vt 0.217296 0.407137
vt 0.400928 0.416296
vt 0.399693 0.548562
vt 0.297268 0.546714
vt 0.221026 0.545896
vt 0.535561 0.577774
vt 0.615376 0.569222
vt 0.430219 0.581338
vt 0.434063 0.442707
vt 0.536503 0.442352
vt 0.614123 0.437148
vt 0.093567 0.442418
vt 0.013090 0.441820
vt 0.199249 0.435801
vt 0.203616 0.567796
vt 0.100801 0.573064
vt 0.022618 0.573649
vt 0.723278 0.681607
vt 0.648858 0.683425
vt 0.822122 0.680396
vt 0.823590 0.789546
vt 0.730077 0.791638
vt 0.659629 0.792412
vt 0.305217 0.675053
vt 0.232055 0.677338
vt 0.403519 0.673757
vt 0.409808 0.777660
vt 0.316903 0.781405
vt 0.247789 0.786087
vt 0.542658 0.313929
vt 0.617097 0.311996
vt 0.444387 0.311205
vt 0.458313 0.202215
vt 0.551151 0.207308
vt 0.621435 0.207994
vt 0.106144 0.696911
vt 0.031117 0.698624
vt 0.204916 0.693004
vt 0.203408 0.797083
vt 0.109912 0.799835
vt 0.038940 0.802401
vt 0.737560 0.869316
vt 0.672514 0.869399
vt 0.823848 0.866753
vt 0.329654 0.856822
vt 0.265994 0.862825
vt 0.415273 0.851683
vt 0.558533 0.131421
vt 0.623248 0.133735
vt 0.473002 0.125040
vt 0.113080 0.873181
vt 0.047586 0.876182
vt 0.199387 0.871274
vn -0.6868 0.1986 0.6992
vn -0.6524 0.2731 0.7070
vn -0.9118 0.4105 0.0000
vn -0.9401 0.3410 0.0000
vn -0.6408 0.2959 0.7084
vn -0.9063 0.4225 0.0000
vn -0.6408 0.2959 -0.7084
vn -0.6524 0.2731 -0.7070
vn -0.6868 0.1986 -0.6992
vn -0.0233 -0.0533 -0.9983
vn -0.0686 -0.1334 -0.9887
vn 0.0006 -0.0091 -1.0000
vn 0.6384 -0.3129 -0.7032
vn 0.6017 -0.3804 -0.7024
vn 0.5434 -0.4696 -0.6959
vn 0.8588 -0.5124 -0.0000
vn 0.7977 -0.6031 -0.0000
vn 0.8995 -0.4369 -0.0000
vn 0.6384 -0.3129 0.7032
vn 0.6017 -0.3804 0.7024
vn 0.5434 -0.4696 0.6959
vn -0.0233 -0.0533 0.9983
vn -0.0686 -0.1334 0.9887
vn 0.0006 -0.0091 1.0000
vn -0.7156 -0.5987 -0.3598
vn -0.4132 -0.8030 -0.4295
vn -0.4574 -0.8893 0.0000
vn -0.7981 -0.6026 0.0000
vn -0.0760 -0.9309 -0.3572
vn -0.0329 -0.9995 0.0000
vn -0.0760 -0.9309 0.3572
vn -0.4132 -0.8030 0.4295
vn -0.7156 -0.5987 0.3598
vn -0.5556 0.4938 -0.6690
vn -0.8347 0.5508 -0.0000
vn -0.6580 0.7530 -0.0000
vn -0.4106 0.7026 -0.5812
vn -0.5556 0.4938 0.6690
vn -0.4106 0.7026 0.5812
vn -0.1762 0.8983 0.4025
vn -0.2443 0.9697 -0.0000
vn -0.1762 0.8983 -0.4025
vn 0.6062 0.6879 -0.3992
vn 0.2321 0.8443 -0.4830
vn 0.2618 0.9651 -0.0000
vn 0.6947 0.7193 0.0000
vn 0.2321 0.8443 0.4830
vn 0.6062 0.6879 0.3992
vn 0.0993 0.3306 0.9385
vn 0.1562 0.5511 0.8197
vn 0.7372 0.1818 0.6508
vn 0.7106 0.4174 0.5665
vn 0.7372 0.1818 -0.6508
vn 0.0993 0.3306 -0.9385
vn 0.1562 0.5511 -0.8197
vn 0.7106 0.4174 -0.5665
vn 0.9938 0.1116 -0.0000
vn 0.9369 0.3496 0.0000
vn 0.3068 -0.7330 0.6072
vn 0.4457 -0.5956 0.6683
vn -0.1414 -0.2722 0.9518
vn -0.2274 -0.4402 0.8686
vn -0.7385 0.0437 0.6728
vn -0.7743 -0.1578 0.6129
vn 0.3068 -0.7330 -0.6072
vn 0.4457 -0.5956 -0.6683
vn 0.6927 -0.7212 0.0000
vn 0.5357 -0.8444 0.0000
vn -0.7743 -0.1578 -0.6129
vn -0.7385 0.0437 -0.6728
vn -0.1414 -0.2722 -0.9518
vn -0.2274 -0.4402 -0.8686
vn -0.9830 0.1838 0.0000
vn -0.9996 -0.0270 0.0000
vn -0.7731 -0.3708 0.5147
vn -0.9662 -0.2578 0.0000
vn -0.7731 -0.3708 -0.5147
vn -0.3116 -0.6043 -0.7333
vn 0.1371 -0.8494 -0.5095
vn 0.3345 -0.9424 0.0000
vn 0.1371 -0.8494 0.5095
vn -0.3116 -0.6043 0.7333
vn 0.9264 -0.3766 -0.0000
vn 0.6614 -0.2624 0.7027
vn 0.6614 -0.2624 -0.7027
vn 0.6783 -0.2194 -0.7013
vn 0.9467 -0.3222 -0.0000
vn 0.6783 -0.2194 0.7013
vn 0.0118 0.0150 -0.9998
vn -0.6415 0.2944 -0.7084
vn -0.6474 0.2804 -0.7087
vn 0.0180 0.0293 -0.9994
vn 0.0118 0.0150 0.9998
vn -0.6415 0.2944 0.7084
vn 0.0180 0.0293 0.9994
vn -0.6474 0.2804 0.7087
vn -0.9125 0.4092 0.0000
vn -0.9238 0.3828 0.0000
vn 0.9645 -0.2642 0.0000
vn 0.6926 -0.1727 0.7004
vn 0.6926 -0.1727 -0.7004
vn 0.7088 -0.1079 -0.6971
vn 0.9819 -0.1895 0.0000
vn 0.7088 -0.1079 0.6971
vn 0.0226 0.0466 -0.9987
vn -0.6531 0.2688 -0.7080
vn -0.6494 0.2808 -0.7067
vn 0.0335 0.0841 -0.9959
vn 0.0226 0.0466 0.9987
vn -0.6531 0.2688 0.7080
vn 0.0335 0.0841 0.9959
vn -0.6494 0.2808 0.7067
vn -0.9336 0.3582 0.0000
vn -0.9337 0.3581 0.0000
vn 0.9978 -0.0657 -0.0000
vn 0.7286 0.0079 0.6848
vn 0.7286 0.0079 -0.6848
vn 0.0592 0.1742 -0.9829
vn -0.6232 0.3493 -0.6997
vn 0.0592 0.1742 0.9829
vn -0.6232 0.3493 0.6997
vn -0.9100 0.4147 0.0000
g cucumber_Cube.002_cucumber_final_final
usemtl cucumber_final_final
s 1
f 13/1/1 34/2/2 93/3/3 60/4/4
f 34/2/2 2/5/5 35/6/6 93/3/3
f 93/3/3 35/6/6 4/7/7 54/8/8
f 60/4/4 93/3/3 54/8/8 14/9/9
f 14/10/9 54/11/8 94/12/10 59/13/11
f 54/11/8 4/14/7 38/15/12 94/12/10
f 94/12/10 38/15/12 8/16/13 55/17/14
f 59/13/11 94/12/10 55/17/14 15/18/15
f 15/19/15 55/20/14 95/21/16 58/22/17
f 55/20/14 8/23/13 41/24/18 95/21/16
f 95/21/16 41/24/18 6/25/19 56/26/20
f 58/22/17 95/21/16 56/26/20 16/27/21
f 16/28/21 56/29/20 96/30/22 57/31/23
f 56/29/20 6/32/19 44/33/24 96/30/22
f 96/30/22 44/33/24 2/34/5 34/35/2
f 57/31/23 96/30/22 34/35/2 13/36/1
f 3/37/25 37/38/26 97/39/27 33/40/28
f 37/38/26 7/41/29 40/42/30 97/39/27
f 97/39/27 40/42/30 5/43/31 43/44/32
f 33/40/28 97/39/27 43/44/32 1/45/33
f 31/46/34 92/47/35 98/48/36 87/49/37
f 92/47/35 29/50/38 49/51/39 98/48/36
f 98/48/36 49/51/39 9/52/40 45/53/41
f 87/49/37 98/48/36 45/53/41 10/54/42
f 11/55/43 46/56/44 99/57/45 47/58/46
f 46/56/44 10/59/42 45/60/41 99/57/45
f 99/57/45 45/60/41 9/61/40 48/62/47
f 47/58/46 99/57/45 48/62/47 12/63/48
f 29/64/38 91/65/49 100/66/50 49/67/39
f 91/65/49 30/68/51 51/69/52 100/66/50
f 100/66/50 51/69/52 12/70/48 48/71/47
f 49/67/39 100/66/50 48/71/47 9/72/40
f 32/73/53 90/74/54 101/75/55 88/76/56
f 90/74/54 31/77/34 87/78/37 101/75/55
f 101/75/55 87/78/37 10/79/42 46/80/44
f 88/81/56 101/82/55 46/56/44 11/55/43
f 30/83/51 89/84/57 102/85/58 51/86/52
f 89/84/57 32/87/53 88/88/56 102/85/58
f 102/89/58 88/81/56 11/55/43 47/58/46
f 51/90/52 102/89/58 47/58/46 12/63/48
f 19/91/59 63/92/60 103/93/61 68/94/62
f 63/92/60 16/28/21 57/31/23 103/93/61
f 103/93/61 57/31/23 13/36/1 53/95/63
f 68/94/62 103/93/61 53/95/63 20/96/64
f 18/97/65 62/98/66 104/99/67 67/100/68
f 62/98/66 15/19/15 58/22/17 104/99/67
f 104/99/67 58/22/17 16/27/21 63/101/60
f 67/100/68 104/99/67 63/101/60 19/102/59
f 17/103/69 61/104/70 105/105/71 66/106/72
f 61/104/70 14/10/9 59/13/11 105/105/71
f 105/105/71 59/13/11 15/18/15 62/107/66
f 66/106/72 105/105/71 62/107/66 18/108/65
f 20/109/64 53/110/63 106/111/73 65/112/74
f 53/110/63 13/1/1 60/4/4 106/111/73
f 106/111/73 60/4/4 14/9/9 61/113/70
f 65/112/74 106/111/73 61/113/70 17/114/69
f 1/115/33 64/116/75 107/117/76 33/118/28
f 64/116/75 20/109/64 65/112/74 107/117/76
f 107/117/76 65/112/74 17/114/69 36/119/77
f 33/40/28 107/120/76 36/121/77 3/37/25
f 3/37/25 36/121/77 108/122/78 37/38/26
f 36/123/77 17/103/69 66/106/72 108/124/78
f 108/122/78 66/125/72 18/126/65 39/127/79
f 37/38/26 108/122/78 39/127/79 7/41/29
f 7/41/29 39/127/79 109/128/80 40/42/30
f 39/129/79 18/97/65 67/100/68 109/130/80
f 109/128/80 67/131/68 19/132/59 42/133/81
f 40/42/30 109/128/80 42/133/81 5/43/31
f 5/43/31 42/133/81 110/134/82 43/44/32
f 42/135/81 19/91/59 68/94/62 110/136/82
f 110/137/82 68/138/62 20/109/64 64/116/75
f 43/44/32 110/134/82 64/139/75 1/45/33
f 6/25/19 41/24/18 111/140/83 71/141/84
f 41/24/18 8/23/13 52/142/85 111/140/83
f 111/140/83 52/142/85 24/143/86 73/144/87
f 71/141/84 111/140/83 73/144/87 23/145/88
f 8/16/13 38/15/12 112/146/89 52/147/85
f 38/15/12 4/14/7 50/148/90 112/146/89
f 112/146/89 50/148/90 22/149/91 74/150/92
f 52/147/85 112/146/89 74/150/92 24/151/86
f 2/34/5 44/33/24 113/152/93 69/153/94
f 44/33/24 6/32/19 71/154/84 113/152/93
f 113/152/93 71/154/84 23/155/88 75/156/95
f 69/153/94 113/152/93 75/156/95 21/157/96
f 4/7/7 35/6/6 114/158/97 50/159/90
f 35/6/6 2/5/5 69/160/94 114/158/97
f 114/158/97 69/160/94 21/161/96 76/162/98
f 50/159/90 114/158/97 76/162/98 22/163/91
f 23/145/88 73/144/87 115/164/99 78/165/100
f 73/144/87 24/143/86 72/166/101 115/164/99
f 115/164/99 72/166/101 28/167/102 81/168/103
f 78/165/100 115/164/99 81/168/103 26/169/104
f 24/151/86 74/150/92 116/170/105 72/171/101
f 74/150/92 22/149/91 70/172/106 116/170/105
f 116/170/105 70/172/106 27/173/107 82/174/108
f 72/171/101 116/170/105 82/174/108 28/175/102
f 21/157/96 75/156/95 117/176/109 77/177/110
f 75/156/95 23/155/88 78/178/100 117/176/109
f 117/176/109 78/178/100 26/179/104 83/180/111
f 77/177/110 117/176/109 83/180/111 25/181/112
f 22/163/91 76/162/98 118/182/113 70/183/106
f 76/162/98 21/161/96 77/184/110 118/182/113
f 118/182/113 77/184/110 25/185/112 84/186/114
f 70/183/106 118/182/113 84/186/114 27/187/107
f 26/169/104 81/168/103 119/188/115 86/189/116
f 81/168/103 28/167/102 80/190/117 119/188/115
f 119/188/115 80/190/117 32/87/53 89/84/57
f 86/189/116 119/188/115 89/84/57 30/83/51
f 28/175/102 82/174/108 120/191/118 80/192/117
f 82/174/108 27/173/107 79/193/119 120/191/118
f 120/191/118 79/193/119 31/77/34 90/74/54
f 80/192/117 120/191/118 90/74/54 32/73/53
f 25/181/112 83/180/111 121/194/120 85/195/121
f 83/180/111 26/179/104 86/196/116 121/194/120
f 121/194/120 86/196/116 30/68/51 91/65/49
f 85/195/121 121/194/120 91/65/49 29/64/38
f 27/187/107 84/186/114 122/197/122 79/198/119
f 84/186/114 25/185/112 85/199/121 122/197/122
f 122/197/122 85/199/121 29/50/38 92/47/35
f 79/198/119 122/197/122 92/47/35 31/46/34
